{
  "accessors": [
    {
      "bufferView": 2,
      "componentType": 5126,
      "count": 3828,
      "max": [
        61.95378112792969,
        73.65436553955078,
        172.8697509765625
      ],
      "min": [
        -356.35089111328125,
        -3.9204249382019043,
        -265.57635498046875
      ],
      "type": "VEC3"
    },
    {
      "bufferView": 2,
      "byteOffset": 45936,
      "componentType": 5126,
      "count": 3828,
      "max": [
        0.9999669790267944,
        0.9984303712844849,
        0.9998379945755005
      ],
      "min": [
        -0.9998833537101746,
        -0.9752984642982483,
        -0.9998335242271423
      ],
      "type": "VEC3"
    },
    {
      "bufferView": 3,
      "componentType": 5126,
      "count": 3828,
      "max": [
        0.9997459053993225,
        0.9998798966407776,
        0.9999893307685852,
        1.0
      ],
      "min": [
        -0.9998647570610046,
        -0.9998714923858643,
        -0.9996256232261658,
        -1.0
      ],
      "type": "VEC4"
    },
    {
      "bufferView": 1,
      "componentType": 5126,
      "count": 3828,
      "max": [
        0.9920859932899475,
        0.9918400049209595
      ],
      "min": [
        0.0038799999747425318,
        0.0038789999671280384
      ],
      "type": "VEC2"
    },
    {
      "bufferView": 1,
      "byteOffset": 30624,
      "componentType": 5126,
      "count": 3828,
      "max": [
        1.0,
        1.0
      ],
      "min": [
        0.0,
        0.0198379997164011
      ],
      "type": "VEC2"
    },
    {
      "bufferView": 0,
      "componentType": 5125,
      "count": 6567,
      "type": "SCALAR"
    },
    {
      "bufferView": 2,
      "byteOffset": 91872,
      "componentType": 5126,
      "count": 8683,
      "max": [
        68.02235412597656,
        230.6329803466797,
        150.1996612548828
      ],
      "min": [
        -361.33734130859375,
        -50.70579528808594,
        -271.02490234375
      ],
      "type": "VEC3"
    },
    {
      "bufferView": 2,
      "byteOffset": 196068,
      "componentType": 5126,
      "count": 8683,
      "max": [
        1.0,
        1.0,
        0.9999998807907104
      ],
      "min": [
        -1.0,
        -1.0,
        -1.0
      ],
      "type": "VEC3"
    },
    {
      "bufferView": 3,
      "byteOffset": 61248,
      "componentType": 5126,
      "count": 8683,
      "max": [
        1.0,
        0.9999126195907593,
        1.0,
        1.0
      ],
      "min": [
        -0.9999998211860657,
        -1.0,
        -1.0,
        -1.0
      ],
      "type": "VEC4"
    },
    {
      "bufferView": 1,
      "byteOffset": 61248,
      "componentType": 5126,
      "count": 8683,
      "max": [
        0.9925360083580017,
        0.9985449910163879
      ],
      "min": [
        0.002363000065088272,
        0.0021490000654011965
      ],
      "type": "VEC2"
    },
    {
      "bufferView": 0,
      "byteOffset": 26268,
      "componentType": 5125,
      "count": 29283,
      "type": "SCALAR"
    },
    {
      "bufferView": 2,
      "byteOffset": 300264,
      "componentType": 5126,
      "count": 20146,
      "max": [
        54.916473388671875,
        241.59010314941406,
        87.50785827636719
      ],
      "min": [
        -373.23577880859375,
        0.5022580027580261,
        -108.40242004394531
      ],
      "type": "VEC3"
    },
    {
      "bufferView": 2,
      "byteOffset": 542016,
      "componentType": 5126,
      "count": 20146,
      "max": [
        1.0,
        1.0,
        1.0
      ],
      "min": [
        -1.0,
        -1.0,
        -1.0
      ],
      "type": "VEC3"
    },
    {
      "bufferView": 3,
      "byteOffset": 200176,
      "componentType": 5126,
      "count": 20146,
      "max": [
        1.0,
        1.0,
        1.0,
        1.0
      ],
      "min": [
        -1.0,
        -1.0,
        -1.0,
        -1.0
      ],
      "type": "VEC4"
    },
    {
      "bufferView": 1,
      "byteOffset": 130712,
      "componentType": 5126,
      "count": 20146,
      "max": [
        0.9983000159263611,
        0.9964359998703003
      ],
      "min": [
        0.0017000000225380063,
        0.0016969999996945262
      ],
      "type": "VEC2"
    },
    {
      "bufferView": 0,
      "byteOffset": 143400,
      "componentType": 5125,
      "count": 67902,
      "type": "SCALAR"
    }
  ],
  "asset": {
    "extras": {
      "author": "ArND (https://sketchfab.com/arkadiynd)",
      "license": "CC-BY-4.0 (http://creativecommons.org/licenses/by/4.0/)",
      "source": "https://sketchfab.com/3d-models/bus-traveler-5fcf60ce47004065a0616de70962f52c",
      "title": "Bus traveler"
    },
    "generator": "Sketchfab-13.12.0",
    "version": "2.0"
  },
  "bufferViews": [
    {
      "buffer": 0,
      "byteLength": 415008,
      "name": "floatBufferViews",
      "target": 34963
    },
    {
      "buffer": 0,
      "byteLength": 291880,
      "byteOffset": 415008,
      "byteStride": 8,
      "name": "floatBufferViews",
      "target": 34962
    },
    {
      "buffer": 0,
      "byteLength": 783768,
      "byteOffset": 706888,
      "byteStride": 12,
      "name": "floatBufferViews",
      "target": 34962
    },
    {
      "buffer": 0,
      "byteLength": 522512,
      "byteOffset": 1490656,
      "byteStride": 16,
      "name": "floatBufferViews",
      "target": 34962
    }
  ],
  "buffers": [
    {
      "byteLength": 2013168,
      "uri": "scene.bin"
    }
  ],
  "images": [
    {
      "uri": "textures/Auto_baseColor.png"
    },
    {
      "uri": "textures/Auto_metallicRoughness.png"
    },
    {
      "uri": "textures/Auto_normal.png"
    },
    {
      "uri": "textures/Envir_baseColor.png"
    },
    {
      "uri": "textures/Envir_metallicRoughness.png"
    },
    {
      "uri": "textures/Envir_emissive.jpeg"
    },
    {
      "uri": "textures/Envir_normal.png"
    },
    {
      "uri": "textures/Grass_baseColor.png"
    },
    {
      "uri": "textures/Grass_metallicRoughness.png"
    },
    {
      "uri": "textures/Grass_normal.png"
    }
  ],
  "materials": [
    {
      "alphaMode": "BLEND",
      "doubleSided": true,
      "name": "Auto",
      "normalTexture": {
        "index": 2
      },
      "occlusionTexture": {
        "index": 1,
        "strength": 0.7116212163694212
      },
      "pbrMetallicRoughness": {
        "baseColorTexture": {
          "index": 0
        },
        "metallicRoughnessTexture": {
          "index": 1
        },
        "roughnessFactor": 0.8274310931233314
      }
    },
    {
      "alphaMode": "BLEND",
      "doubleSided": true,
      "emissiveFactor": [
        1.0,
        1.0,
        1.0
      ],
      "emissiveTexture": {
        "index": 5
      },
      "name": "Envir",
      "normalTexture": {
        "index": 6
      },
      "occlusionTexture": {
        "index": 4
      },
      "pbrMetallicRoughness": {
        "baseColorTexture": {
          "index": 3
        },
        "metallicRoughnessTexture": {
          "index": 4
        },
        "roughnessFactor": 0.7847642964245224
      }
    },
    {
      "alphaMode": "BLEND",
      "doubleSided": true,
      "name": "Grass",
      "normalTexture": {
        "index": 9
      },
      "occlusionTexture": {
        "index": 8
      },
      "pbrMetallicRoughness": {
        "baseColorTexture": {
          "index": 7
        },
        "metallicRoughnessTexture": {
          "index": 8
        }
      }
    }
  ],
  "meshes": [
    {
      "name": "defaultMaterial",
      "primitives": [
        {
          "attributes": {
            "NORMAL": 1,
            "POSITION": 0,
            "TANGENT": 2,
            "TEXCOORD_0": 3,
            "TEXCOORD_1": 4
          },
          "indices": 5,
          "material": 2,
          "mode": 4
        }
      ]
    },
    {
      "name": "defaultMaterial",
      "primitives": [
        {
          "attributes": {
            "NORMAL": 7,
            "POSITION": 6,
            "TANGENT": 8,
            "TEXCOORD_0": 9
          },
          "indices": 10,
          "material": 1,
          "mode": 4
        }
      ]
    },
    {
      "name": "defaultMaterial",
      "primitives": [
        {
          "attributes": {
            "NORMAL": 12,
            "POSITION": 11,
            "TANGENT": 13,
            "TEXCOORD_0": 14
          },
          "indices": 15,
          "material": 0,
          "mode": 4
        }
      ]
    }
  ],
  "nodes": [
    {
      "children": [
        1
      ],
      "matrix": [
        1.0,
        0.0,
        0.0,
        0.0,
        0.0,
        2.220446049250313e-16,
        -1.0,
        0.0,
        0.0,
        1.0,
        2.220446049250313e-16,
        0.0,
        0.0,
        0.0,
        0.0,
        1.0
      ],
      "name": "Sketchfab_model"
    },
    {
      "children": [
        2,
        4,
        6
      ],
      "matrix": [
        1.0,
        0.0,
        0.0,
        0.0,
        0.0,
        -4.371139006309477e-08,
        0.999999999999999,
        0.0,
        0.0,
        -0.999999999999999,
        -4.371139006309477e-08,
        0.0,
        0.0,
        0.0,
        0.0,
        1.0
      ],
      "name": "Collada visual scene group"
    },
    {
      "children": [
        3
      ],
      "name": "Box022"
    },
    {
      "mesh": 0,
      "name": "defaultMaterial"
    },
    {
      "children": [
        5
      ],
      "name": "Cylinder011"
    },
    {
      "mesh": 1,
      "name": "defaultMaterial"
    },
    {
      "children": [
        7
      ],
      "name": "Box001"
    },
    {
      "mesh": 2,
      "name": "defaultMaterial"
    }
  ],
  "samplers": [
    {
      "magFilter": 9729,
      "minFilter": 9987,
      "wrapS": 10497,
      "wrapT": 10497
    }
  ],
  "scene": 0,
  "scenes": [
    {
      "name": "Sketchfab_Scene",
      "nodes": [
        0
      ]
    }
  ],
  "textures": [
    {
      "sampler": 0,
      "source": 0
    },
    {
      "sampler": 0,
      "source": 1
    },
    {
      "sampler": 0,
      "source": 2
    },
    {
      "sampler": 0,
      "source": 3
    },
    {
      "sampler": 0,
      "source": 4
    },
    {
      "sampler": 0,
      "source": 5
    },
    {
      "sampler": 0,
      "source": 6
    },
    {
      "sampler": 0,
      "source": 7
    },
    {
      "sampler": 0,
      "source": 8
    },
    {
      "sampler": 0,
      "source": 9
    }
  ]
}
